<svg aria-hidden="true" class="_ufjrdd" style="fill:#4285f4;height:20px;width:20px" viewBox="0 0 48 48" role="img" aria-labelledby="FlexibleSchedule9dbcfe75-9244-41f3-c722-dd6f5a5aee0a FlexibleSchedule9dbcfe75-9244-41f3-c722-dd6f5a5aee0aDesc" xmlns="http://www.w3.org/2000/svg"><title id="FlexibleSchedule9dbcfe75-9244-41f3-c722-dd6f5a5aee0a">Flexible Schedule</title><g stroke="none" stroke-width="1" fill-rule="evenodd" role="presentation"><g fill-rule="nonzero"><g><path d="M0,0 L48,0 L48,37 C48,43.0751322 43.0751322,48 37,48 L11,48 C4.92486775,48 0,43.0751322 0,37 L0,0 Z M46,37 L46,2 L2,2 L2,37 C2,41.9705627 6.02943725,46 11,46 L37,46 C41.9705627,46 46,41.9705627 46,37 Z M10,8 L38,8 L38,10 L10,10 L10,8 Z M34,17 L38,17 L38,21 L34,21 L34,17 Z M26,17 L30,17 L30,21 L26,21 L26,17 Z M18,17 L22,17 L22,21 L18,21 L18,17 Z M34,25 L38,25 L38,29 L34,29 L34,25 Z M26,25 L30,25 L30,29 L26,29 L26,25 Z M18,25 L22,25 L22,29 L18,29 L18,25 Z M10,25 L14,25 L14,29 L10,29 L10,25 Z M26,33 L30,33 L30,37 L26,37 L26,33 Z M18,33 L22,33 L22,37 L18,37 L18,33 Z M10,33 L14,33 L14,37 L10,37 L10,33 Z"></path></g></g></g></svg>