<svg aria-hidden="true" class="_ufjrdd" style="fill:#4285f4;height:20px;width:20px" viewBox="0 0 48 48" role="img" aria-labelledby="100%onlinecourses123f86d0-cd10-4731-ecd0-2d942cf0ce47 100%onlinecourses123f86d0-cd10-4731-ecd0-2d942cf0ce47Desc" xmlns="http://www.w3.org/2000/svg"><title id="100%onlinecourses123f86d0-cd10-4731-ecd0-2d942cf0ce47">100% online courses</title><path d="M29.144,2.6074 C30.868,4.5654 32.31,7.5324 33.322,11.1824 C36.407,10.4934 38.17,9.4914 39.698,8.6014 C36.855,5.7034 33.218,3.5864 29.144,2.6074 L29.144,2.6074 Z M8.239,8.6654 C9.691,9.5474 11.656,10.5824 15.059,11.2674 C16.093,7.5044 17.581,4.4624 19.364,2.4914 C15.054,3.4194 11.208,5.6144 8.239,8.6654 L8.239,8.6654 Z M17.026,11.5984 C18.939,11.8624 21.228,12.0234 24,12.0234 C27.009,12.0234 29.408,11.8414 31.364,11.5454 C29.704,5.6564 26.962,2.1054 24.321,2.0024 C24.263,2.0014 24.206,2.0014 24.148,2.0004 C21.478,2.0484 18.698,5.6304 17.026,11.5984 L17.026,11.5984 Z M2.022,23.0004 L13.482,23.0004 C13.543,19.4734 13.93,16.1644 14.579,13.2154 C10.664,12.4204 8.499,11.1834 6.891,10.1844 C4.03,13.7214 2.24,18.1604 2.022,23.0004 L2.022,23.0004 Z M15.482,23.0004 L32.923,23.0004 C32.861,19.4734 32.472,16.2744 31.855,13.4984 C29.767,13.8234 27.209,14.0234 24,14.0234 C21.035,14.0234 18.585,13.8444 16.538,13.5524 C15.928,16.3154 15.543,19.4964 15.482,23.0004 L15.482,23.0004 Z M34.923,23.0004 L45.977,23.0004 C45.758,18.1314 43.95,13.6704 41.06,10.1234 C40.978,10.1704 40.896,10.2184 40.813,10.2664 C39.129,11.2484 37.204,12.3704 33.808,13.1304 C34.467,16.1004 34.861,19.4394 34.923,23.0004 L34.923,23.0004 Z M23.915,33.4534 C27.147,33.4534 29.78,33.6774 31.956,34.0364 C32.515,31.3704 32.864,28.3324 32.923,25.0004 L15.482,25.0004 C15.54,28.2944 15.883,31.3024 16.431,33.9474 C18.471,33.6414 20.922,33.4534 23.915,33.4534 L23.915,33.4534 Z M2.022,25.0004 C2.233,29.6894 3.92,34.0034 6.627,37.4834 C6.703,37.4394 6.78,37.3944 6.858,37.3494 C8.586,36.3414 10.707,35.1064 14.475,34.3004 C13.889,31.4754 13.54,28.3354 13.482,25.0004 L2.022,25.0004 Z M33.905,34.4184 C37.597,35.2674 39.727,36.5214 41.338,37.5274 C44.065,34.0394 45.766,29.7094 45.977,25.0004 L34.923,25.0004 C34.864,28.3824 34.506,31.5634 33.905,34.4184 L33.905,34.4184 Z M33.443,36.3704 C32.426,40.2264 30.938,43.3554 29.144,45.3924 C33.373,44.3754 37.132,42.1334 40.02,39.0634 C38.571,38.1704 36.649,37.1104 33.443,36.3704 L33.443,36.3704 Z M7.947,39.0284 C10.955,42.2394 14.911,44.5494 19.364,45.5084 C17.504,43.4524 15.965,40.2294 14.927,36.2404 C11.531,36.9614 9.609,38.0614 7.947,39.0284 L7.947,39.0284 Z M16.888,35.8944 C18.541,42.1664 21.404,45.9494 24.148,45.9994 C24.206,45.9994 24.263,45.9984 24.321,45.9974 C27.031,45.8924 29.847,42.1574 31.492,35.9904 C29.446,35.6594 26.966,35.4534 23.915,35.4534 C21.091,35.4534 18.793,35.6194 16.888,35.8944 L16.888,35.8944 Z M24.203,48.0004 L24,48.0004 C10.767,48.0004 0,37.2334 0,24.0004 C0,10.7664 10.767,0.0004 24,0.0004 L24.203,0.0004 C24.26,0.0004 24.317,0.0014 24.375,0.0034 C37.436,0.2044 48,10.8914 48,24.0004 C48,37.1084 37.436,47.7954 24.375,47.9974 C24.317,47.9994 24.26,48.0004 24.203,48.0004 L24.203,48.0004 Z" role="presentation"></path></svg>