<svg aria-hidden="true" class="_ufjrdd" style="fill:#4285f4;height:20px;width:20px" viewBox="0 0 48 48" role="img" aria-labelledby="Availablelanguages06959b44-94c0-4195-ebcd-43e861b0397f Availablelanguages06959b44-94c0-4195-ebcd-43e861b0397fDesc" xmlns="http://www.w3.org/2000/svg"><title id="Availablelanguages06959b44-94c0-4195-ebcd-43e861b0397f">Available languages</title><path d="M11.4782609,2.03497615 C6.30052174,2.03497615 2.08695652,6.143593 2.08695652,11.1923688 L2.08695652,43.5739269 L15.2556522,32.5596184 L36.5217391,32.5596184 C41.6994783,32.5596184 45.9130435,28.4510016 45.9130435,23.4022258 L45.9130435,11.1923688 C45.9130435,6.143593 41.6994783,2.03497615 36.5217391,2.03497615 L11.4782609,2.03497615 Z M0,48 L0,11.1923688 C0,5.02130366 5.14956522,0 11.4782609,0 L36.5217391,0 C42.8504348,0 48,5.02130366 48,11.1923688 L48,23.4022258 C48,29.5732909 42.8504348,34.5945946 36.5217391,34.5945946 L16.0278261,34.5945946 L0,48 Z M17.7391304,17.2972973 C17.7391304,15.6113196 16.3377391,14.2448331 14.6086957,14.2448331 C12.8796522,14.2448331 11.4782609,15.6113196 11.4782609,17.2972973 C11.4782609,18.983275 12.8796522,20.3497615 14.6086957,20.3497615 C16.3377391,20.3497615 17.7391304,18.983275 17.7391304,17.2972973 Z M27.1304348,17.2972973 C27.1304348,15.6113196 25.7290435,14.2448331 24,14.2448331 C22.2709565,14.2448331 20.8695652,15.6113196 20.8695652,17.2972973 C20.8695652,18.983275 22.2709565,20.3497615 24,20.3497615 C25.7290435,20.3497615 27.1304348,18.983275 27.1304348,17.2972973 Z M36.5217391,17.2972973 C36.5217391,15.6113196 35.1203478,14.2448331 33.3913043,14.2448331 C31.6622609,14.2448331 30.2608696,15.6113196 30.2608696,17.2972973 C30.2608696,18.983275 31.6622609,20.3497615 33.3913043,20.3497615 C35.1203478,20.3497615 36.5217391,18.983275 36.5217391,17.2972973 Z" role="presentation"></path></svg>